# xmcd CD database file
#
# Track frame offsets:
#	150
#	15701
#	37006
#	54365
#	69381
#	83485
#	98285
#	113908
#	128306
#	152850
#	167669
#	184752
#	201685
#	214415
#	228938
#	246260
#	263569
#	269585
#	287515
#	302751
#
# Disc length: 4343 seconds
#
# Revision: 0
# Processed by: cddbd v1.5.2PL0 Copyright (c) Steve Scherf et al.
# Submitted via: cdripper 1,0,33,916
#
DISCID=1010f514
DTITLE=Karel Gott - 30 To vám byl dobrý rok
DYEAR=2007
DGENRE=Komplet
TTITLE0=Je slavná
TTITLE1=Jediná
TTITLE2=Mám tu krásný výhled
TTITLE3=Odnauc se ríkat ne
TTITLE4=Prátelé
TTITLE5=Cikánka
TTITLE6=Dnes mám perný den
TTITLE7=Náladová náruc tvá
TTITLE8=Málem bych zapomnel
TTITLE9=Nejsi obycejná
TTITLE10=Portrét neznámé
TTITLE11=To vám byl dobrý rok
TTITLE12=S láskou
TTITLE13=Kdyz je slunce nad hlavou
TTITLE14=Najednou
TTITLE15=Pulnoc v motelu stop
TTITLE16=Vcelka Maja
TTITLE17=Zít
TTITLE18=Správná noc
TTITLE19=Má pout
EXTD=YEAR: 2007
EXTT0=
EXTT1=
EXTT2=
EXTT3=
EXTT4=
EXTT5=
EXTT6=
EXTT7=
EXTT8=
EXTT9=
EXTT10=
EXTT11=
EXTT12=
EXTT13=
EXTT14=
EXTT15=
EXTT16=
EXTT17=
EXTT18=
EXTT19=
PLAYORDER=
